<mxfile host="Electron" modified="2023-12-27T06:08:43.728Z" agent="Mozilla/5.0 (X11; Linux x86_64) AppleWebKit/537.36 (KHTML, like Gecko) draw.io/22.1.2 Chrome/114.0.5735.289 Electron/25.9.4 Safari/537.36" etag="w1aDg-1y2PP_hs_k5KaT" version="22.1.2" type="device">
  <diagram name="Page-1" id="2YBvvXClWsGukQMizWep">
    <mxGraphModel dx="1434" dy="1987" grid="0" gridSize="10" guides="1" tooltips="1" connect="1" arrows="1" fold="1" page="1" pageScale="1" pageWidth="850" pageHeight="1100" math="0" shadow="0">
      <root>
        <mxCell id="0" />
        <mxCell id="1" parent="0" />
        <mxCell id="iqvFlgSCIFPxNRSWt7G6-1" value="" style="shape=umlLifeline;perimeter=lifelinePerimeter;whiteSpace=wrap;html=1;container=0;dropTarget=0;collapsible=0;recursiveResize=0;outlineConnect=0;portConstraint=eastwest;newEdgeStyle={&quot;curved&quot;:0,&quot;rounded&quot;:0};participant=umlActor;size=80;" parent="1" vertex="1">
          <mxGeometry x="819.93006993007" y="-35.535714285714285" width="52.447552447552454" height="1337.3809523809523" as="geometry" />
        </mxCell>
        <mxCell id="iqvFlgSCIFPxNRSWt7G6-2" value="user" style="text;html=1;strokeColor=none;fillColor=none;align=center;verticalAlign=middle;whiteSpace=wrap;rounded=0;container=0;" parent="1" vertex="1">
          <mxGeometry x="819.93006993007" y="-60" width="52.447552447552454" height="24.464285714285715" as="geometry" />
        </mxCell>
        <mxCell id="iqvFlgSCIFPxNRSWt7G6-3" value="" style="html=1;points=[[0,0,0,0,5],[0,1,0,0,-5],[1,0,0,0,5],[1,1,0,0,-5]];perimeter=orthogonalPerimeter;outlineConnect=0;targetShapes=umlLifeline;portConstraint=eastwest;newEdgeStyle={&quot;curved&quot;:0,&quot;rounded&quot;:0};container=0;" parent="1" vertex="1">
          <mxGeometry x="841.7832167832167" y="62.32142857142857" width="8.741258741258742" height="220.17857142857142" as="geometry" />
        </mxCell>
        <mxCell id="iqvFlgSCIFPxNRSWt7G6-4" value="database" style="shape=umlLifeline;perimeter=lifelinePerimeter;whiteSpace=wrap;html=1;container=0;dropTarget=0;collapsible=0;recursiveResize=0;outlineConnect=0;portConstraint=eastwest;newEdgeStyle={&quot;curved&quot;:0,&quot;rounded&quot;:0};" parent="1" vertex="1">
          <mxGeometry x="1222.027972027972" y="-43.69047619047619" width="87.41258741258741" height="1353.6904761904761" as="geometry" />
        </mxCell>
        <mxCell id="iqvFlgSCIFPxNRSWt7G6-6" value="Welcome(login)_page" style="shape=umlLifeline;perimeter=lifelinePerimeter;whiteSpace=wrap;html=1;container=0;dropTarget=0;collapsible=0;recursiveResize=0;outlineConnect=0;portConstraint=eastwest;newEdgeStyle={&quot;curved&quot;:0,&quot;rounded&quot;:0};" parent="1" vertex="1">
          <mxGeometry x="1632.867132867133" y="-43.69047619047619" width="131.11888111888112" height="1337.3809523809523" as="geometry" />
        </mxCell>
        <mxCell id="iqvFlgSCIFPxNRSWt7G6-8" value="create Account( f_name,fam_name,phone,type)" style="endArrow=block;endFill=1;html=1;edgeStyle=orthogonalEdgeStyle;align=left;verticalAlign=top;rounded=0;" parent="1" edge="1">
          <mxGeometry x="-0.8182" y="30" relative="1" as="geometry">
            <mxPoint x="854.8951048951049" y="70.47619047619048" as="sourcePoint" />
            <mxPoint x="1086.5384615384614" y="70.47619047619048" as="targetPoint" />
            <mxPoint as="offset" />
          </mxGeometry>
        </mxCell>
        <mxCell id="iqvFlgSCIFPxNRSWt7G6-10" value="Create_account_page" style="shape=umlLifeline;perimeter=lifelinePerimeter;whiteSpace=wrap;html=1;container=0;dropTarget=0;collapsible=0;recursiveResize=0;outlineConnect=0;portConstraint=eastwest;newEdgeStyle={&quot;curved&quot;:0,&quot;rounded&quot;:0};" parent="1" vertex="1">
          <mxGeometry x="1021.82" y="-43.69" width="138.18" height="187.56" as="geometry" />
        </mxCell>
        <mxCell id="iqvFlgSCIFPxNRSWt7G6-11" value="add_user(data)" style="html=1;verticalAlign=bottom;endArrow=block;curved=0;rounded=0;" parent="1" edge="1">
          <mxGeometry x="-0.2629" y="10" width="80" relative="1" as="geometry">
            <mxPoint x="1099.6503496503497" y="78.63095238095238" as="sourcePoint" />
            <mxPoint x="1265.7342657342656" y="78.22321428571428" as="targetPoint" />
            <mxPoint as="offset" />
          </mxGeometry>
        </mxCell>
        <mxCell id="iqvFlgSCIFPxNRSWt7G6-15" value="" style="html=1;points=[[0,0,0,0,5],[0,1,0,0,-5],[1,0,0,0,5],[1,1,0,0,-5]];perimeter=orthogonalPerimeter;outlineConnect=0;targetShapes=umlLifeline;portConstraint=eastwest;newEdgeStyle={&quot;curved&quot;:0,&quot;rounded&quot;:0};container=0;" parent="1" vertex="1">
          <mxGeometry x="1086.5384615384614" y="70.47619047619048" width="8.741258741258742" height="65.23809523809524" as="geometry" />
        </mxCell>
        <mxCell id="iqvFlgSCIFPxNRSWt7G6-17" value="return" style="html=1;verticalAlign=bottom;endArrow=open;dashed=1;endSize=8;curved=0;rounded=0;" parent="1" target="iqvFlgSCIFPxNRSWt7G6-15" edge="1">
          <mxGeometry x="-0.75" y="-30" relative="1" as="geometry">
            <mxPoint x="1256.993006993007" y="111.25" as="sourcePoint" />
            <mxPoint x="1187.0629370629372" y="111.25" as="targetPoint" />
            <mxPoint as="offset" />
          </mxGeometry>
        </mxCell>
        <mxCell id="iqvFlgSCIFPxNRSWt7G6-18" value="" style="html=1;verticalAlign=bottom;endArrow=open;dashed=1;endSize=8;curved=0;rounded=0;" parent="1" edge="1">
          <mxGeometry x="-0.75" y="-30" relative="1" as="geometry">
            <mxPoint x="1086.5384615384614" y="127.5595238095238" as="sourcePoint" />
            <mxPoint x="854.8951048951049" y="127.5595238095238" as="targetPoint" />
            <mxPoint as="offset" />
          </mxGeometry>
        </mxCell>
        <mxCell id="iqvFlgSCIFPxNRSWt7G6-20" value="login(phone)" style="html=1;verticalAlign=bottom;endArrow=block;curved=0;rounded=0;entryX=0;entryY=0;entryDx=0;entryDy=5;entryPerimeter=0;" parent="1" target="iqvFlgSCIFPxNRSWt7G6-7" edge="1">
          <mxGeometry x="-0.263" y="10" width="80" relative="1" as="geometry">
            <mxPoint x="850.5244755244755" y="359.9702380952381" as="sourcePoint" />
            <mxPoint x="1665.6468531468531" y="359.5625" as="targetPoint" />
            <mxPoint as="offset" />
          </mxGeometry>
        </mxCell>
        <mxCell id="iqvFlgSCIFPxNRSWt7G6-21" value="" style="html=1;verticalAlign=bottom;endArrow=open;dashed=1;endSize=8;curved=0;rounded=0;" parent="1" source="iqvFlgSCIFPxNRSWt7G6-6" edge="1">
          <mxGeometry x="-0.75" y="-30" relative="1" as="geometry">
            <mxPoint x="1672.2027972027972" y="412.9761904761905" as="sourcePoint" />
            <mxPoint x="850.5244755244755" y="412.9761904761905" as="targetPoint" />
            <mxPoint as="offset" />
          </mxGeometry>
        </mxCell>
        <mxCell id="iqvFlgSCIFPxNRSWt7G6-22" value="Bank_card_page" style="shape=umlLifeline;perimeter=lifelinePerimeter;whiteSpace=wrap;html=1;container=0;dropTarget=0;collapsible=0;recursiveResize=0;outlineConnect=0;portConstraint=eastwest;newEdgeStyle={&quot;curved&quot;:0,&quot;rounded&quot;:0};" parent="1" vertex="1">
          <mxGeometry x="1356.67" y="-43.69" width="115.33" height="309.88" as="geometry" />
        </mxCell>
        <mxCell id="iqvFlgSCIFPxNRSWt7G6-24" value="fill_card_info(number , name , MM , YY , CCV," style="endArrow=block;endFill=1;html=1;edgeStyle=orthogonalEdgeStyle;align=left;verticalAlign=top;rounded=0;" parent="1" edge="1">
          <mxGeometry x="-0.8182" y="30" relative="1" as="geometry">
            <mxPoint x="850.5244755244755" y="172.00297619047618" as="sourcePoint" />
            <mxPoint x="1409.965034965035" y="172.00297619047618" as="targetPoint" />
            <mxPoint as="offset" />
          </mxGeometry>
        </mxCell>
        <mxCell id="iqvFlgSCIFPxNRSWt7G6-25" value="bank" style="shape=umlLifeline;perimeter=lifelinePerimeter;whiteSpace=wrap;html=1;container=0;dropTarget=0;collapsible=0;recursiveResize=0;outlineConnect=0;portConstraint=eastwest;newEdgeStyle={&quot;curved&quot;:0,&quot;rounded&quot;:0};" parent="1" vertex="1">
          <mxGeometry x="1506.1188811188813" y="-43.69047619047619" width="87.41258741258741" height="1353.6904761904761" as="geometry" />
        </mxCell>
        <mxCell id="iqvFlgSCIFPxNRSWt7G6-26" value="Authorize_card(data)" style="html=1;verticalAlign=bottom;endArrow=block;curved=0;rounded=0;" parent="1" edge="1">
          <mxGeometry y="5" width="80" relative="1" as="geometry">
            <mxPoint x="1423.076923076923" y="180.1577380952381" as="sourcePoint" />
            <mxPoint x="1545.4545454545455" y="180.1577380952381" as="targetPoint" />
            <mxPoint y="1" as="offset" />
          </mxGeometry>
        </mxCell>
        <mxCell id="iqvFlgSCIFPxNRSWt7G6-28" value="" style="html=1;points=[[0,0,0,0,5],[0,1,0,0,-5],[1,0,0,0,5],[1,1,0,0,-5]];perimeter=orthogonalPerimeter;outlineConnect=0;targetShapes=umlLifeline;portConstraint=eastwest;newEdgeStyle={&quot;curved&quot;:0,&quot;rounded&quot;:0};container=0;" parent="1" vertex="1">
          <mxGeometry x="1545.4545454545455" y="176.48809523809524" width="8.741258741258742" height="40.773809523809526" as="geometry" />
        </mxCell>
        <mxCell id="iqvFlgSCIFPxNRSWt7G6-29" value="" style="html=1;verticalAlign=bottom;endArrow=open;dashed=1;endSize=8;curved=0;rounded=0;" parent="1" edge="1">
          <mxGeometry x="-0.75" y="-30" relative="1" as="geometry">
            <mxPoint x="1545.4545454545455" y="217.26190476190476" as="sourcePoint" />
            <mxPoint x="1423.076923076923" y="217.26190476190476" as="targetPoint" />
            <mxPoint as="offset" />
          </mxGeometry>
        </mxCell>
        <mxCell id="iqvFlgSCIFPxNRSWt7G6-31" value="" style="html=1;verticalAlign=bottom;endArrow=open;dashed=1;endSize=8;curved=0;rounded=0;" parent="1" target="iqvFlgSCIFPxNRSWt7G6-1" edge="1">
          <mxGeometry x="-0.75" y="-30" relative="1" as="geometry">
            <mxPoint x="1409.965034965035" y="233.57142857142856" as="sourcePoint" />
            <mxPoint x="1178.3216783216783" y="233.57142857142856" as="targetPoint" />
            <mxPoint as="offset" />
          </mxGeometry>
        </mxCell>
        <mxCell id="iqvFlgSCIFPxNRSWt7G6-57" value="Driver_Homepage" style="shape=umlLifeline;perimeter=lifelinePerimeter;whiteSpace=wrap;html=1;container=0;dropTarget=0;collapsible=0;recursiveResize=0;outlineConnect=0;portConstraint=eastwest;newEdgeStyle={&quot;curved&quot;:0,&quot;rounded&quot;:0};" parent="1" vertex="1">
          <mxGeometry x="1800.54" y="-43.69" width="110.46" height="1337.38" as="geometry" />
        </mxCell>
        <mxCell id="iqvFlgSCIFPxNRSWt7G6-59" value="start_trip( to , from , price)" style="html=1;verticalAlign=bottom;endArrow=block;curved=0;rounded=0;" parent="1" target="iqvFlgSCIFPxNRSWt7G6-57" edge="1">
          <mxGeometry x="-0.3301" y="10" width="80" relative="1" as="geometry">
            <mxPoint x="850.5244755244755" y="494.5238095238095" as="sourcePoint" />
            <mxPoint x="1694.055944055944" y="494.5238095238095" as="targetPoint" />
            <mxPoint as="offset" />
          </mxGeometry>
        </mxCell>
        <mxCell id="iqvFlgSCIFPxNRSWt7G6-58" value="" style="html=1;points=[[0,0,0,0,5],[0,1,0,0,-5],[1,0,0,0,5],[1,1,0,0,-5]];perimeter=orthogonalPerimeter;outlineConnect=0;targetShapes=umlLifeline;portConstraint=eastwest;newEdgeStyle={&quot;curved&quot;:0,&quot;rounded&quot;:0};container=0;" parent="1" vertex="1">
          <mxGeometry x="1851.3986013986014" y="494.5238095238095" width="8.741258741258742" height="733.9285714285714" as="geometry" />
        </mxCell>
        <mxCell id="iqvFlgSCIFPxNRSWt7G6-61" value="" style="ellipse;html=1;shape=endState;fillColor=#000000;strokeColor=#ff0000;container=0;" parent="1" vertex="1">
          <mxGeometry x="1084.3531468531469" y="143.86904761904762" width="13.111888111888113" height="8.154761904761905" as="geometry" />
        </mxCell>
        <mxCell id="iqvFlgSCIFPxNRSWt7G6-64" value="Add_trip(data)" style="html=1;verticalAlign=bottom;endArrow=block;curved=0;rounded=0;" parent="1" source="iqvFlgSCIFPxNRSWt7G6-58" edge="1">
          <mxGeometry x="-0.2727" y="-5" width="80" relative="1" as="geometry">
            <mxPoint x="1475.5244755244755" y="576.0714285714286" as="sourcePoint" />
            <mxPoint x="1274.4755244755245" y="539.375" as="targetPoint" />
            <mxPoint as="offset" />
          </mxGeometry>
        </mxCell>
        <mxCell id="iqvFlgSCIFPxNRSWt7G6-65" value="" style="html=1;verticalAlign=bottom;endArrow=open;dashed=1;endSize=8;curved=0;rounded=0;exitX=1;exitY=1;exitDx=0;exitDy=-5;exitPerimeter=0;" parent="1" source="iqvFlgSCIFPxNRSWt7G6-63" target="iqvFlgSCIFPxNRSWt7G6-58" edge="1">
          <mxGeometry x="-0.75" y="-30" relative="1" as="geometry">
            <mxPoint x="1536.7132867132868" y="576.0714285714286" as="sourcePoint" />
            <mxPoint x="1414.3356643356642" y="576.0714285714286" as="targetPoint" />
            <mxPoint as="offset" />
          </mxGeometry>
        </mxCell>
        <mxCell id="iqvFlgSCIFPxNRSWt7G6-66" value="accept_passenger(phone)" style="html=1;verticalAlign=bottom;endArrow=block;curved=0;rounded=0;" parent="1" target="iqvFlgSCIFPxNRSWt7G6-58" edge="1">
          <mxGeometry x="-0.3127" y="10" width="80" relative="1" as="geometry">
            <mxPoint x="855.3321678321679" y="682.0833333333334" as="sourcePoint" />
            <mxPoint x="1842.6573426573427" y="682.0833333333334" as="targetPoint" />
            <mxPoint as="offset" />
          </mxGeometry>
        </mxCell>
        <mxCell id="iqvFlgSCIFPxNRSWt7G6-69" value="Accept_passenger(phone)" style="html=1;verticalAlign=bottom;endArrow=block;curved=0;rounded=0;" parent="1" edge="1">
          <mxGeometry x="-0.2727" y="-5" width="80" relative="1" as="geometry">
            <mxPoint x="1851.3986013986014" y="714.702380952381" as="sourcePoint" />
            <mxPoint x="1274.4755244755245" y="714.702380952381" as="targetPoint" />
            <mxPoint as="offset" />
          </mxGeometry>
        </mxCell>
        <mxCell id="iqvFlgSCIFPxNRSWt7G6-70" value="" style="html=1;verticalAlign=bottom;endArrow=open;dashed=1;endSize=8;curved=0;rounded=0;exitX=1;exitY=1;exitDx=0;exitDy=-5;exitPerimeter=0;" parent="1" edge="1">
          <mxGeometry x="-0.75" y="-30" relative="1" as="geometry">
            <mxPoint x="1270.1048951048951" y="755.4761904761905" as="sourcePoint" />
            <mxPoint x="1851.3986013986014" y="755.4761904761905" as="targetPoint" />
            <mxPoint as="offset" />
          </mxGeometry>
        </mxCell>
        <mxCell id="iqvFlgSCIFPxNRSWt7G6-72" value="Get_pendingPassengers()" style="html=1;verticalAlign=bottom;endArrow=block;curved=0;rounded=0;" parent="1" edge="1">
          <mxGeometry x="-0.1818" width="80" relative="1" as="geometry">
            <mxPoint x="1851.3986013986014" y="600.5357142857142" as="sourcePoint" />
            <mxPoint x="1274.4755244755245" y="600.5357142857142" as="targetPoint" />
            <mxPoint as="offset" />
          </mxGeometry>
        </mxCell>
        <mxCell id="iqvFlgSCIFPxNRSWt7G6-73" value="" style="html=1;verticalAlign=bottom;endArrow=open;dashed=1;endSize=8;curved=0;rounded=0;exitX=1;exitY=1;exitDx=0;exitDy=-5;exitPerimeter=0;" parent="1" edge="1">
          <mxGeometry x="-0.75" y="-30" relative="1" as="geometry">
            <mxPoint x="1270.1048951048951" y="641.3095238095239" as="sourcePoint" />
            <mxPoint x="1851.3986013986014" y="641.3095238095239" as="targetPoint" />
            <mxPoint as="offset" />
          </mxGeometry>
        </mxCell>
        <mxCell id="iqvFlgSCIFPxNRSWt7G6-74" value="pending passengers" style="edgeLabel;html=1;align=center;verticalAlign=middle;resizable=0;points=[];container=0;" parent="iqvFlgSCIFPxNRSWt7G6-73" vertex="1" connectable="0">
          <mxGeometry x="0.3642" y="1" relative="1" as="geometry">
            <mxPoint x="-19" y="-9" as="offset" />
          </mxGeometry>
        </mxCell>
        <mxCell id="iqvFlgSCIFPxNRSWt7G6-76" value="" style="ellipse;html=1;shape=endState;fillColor=#000000;strokeColor=#ff0000;container=0;" parent="1" vertex="1">
          <mxGeometry x="1407.7797202797203" y="258.0357142857143" width="13.111888111888113" height="16.30952380952381" as="geometry" />
        </mxCell>
        <mxCell id="iqvFlgSCIFPxNRSWt7G6-79" value="driver" style="shape=umlFrame;whiteSpace=wrap;html=1;pointerEvents=0;container=0;" parent="1" vertex="1">
          <mxGeometry x="750" y="453.75" width="1241.2587412587413" height="375.1190476190476" as="geometry" />
        </mxCell>
        <mxCell id="iqvFlgSCIFPxNRSWt7G6-80" value="ride()" style="html=1;verticalAlign=bottom;endArrow=block;curved=0;rounded=0;" parent="1" edge="1">
          <mxGeometry x="-0.3301" y="10" width="80" relative="1" as="geometry">
            <mxPoint x="850.5244755244755" y="902.2619047619047" as="sourcePoint" />
            <mxPoint x="1851.3986013986014" y="902.2619047619047" as="targetPoint" />
            <mxPoint as="offset" />
          </mxGeometry>
        </mxCell>
        <mxCell id="iqvFlgSCIFPxNRSWt7G6-81" value="" style="html=1;verticalAlign=bottom;endArrow=open;dashed=1;endSize=8;curved=0;rounded=0;" parent="1" source="iqvFlgSCIFPxNRSWt7G6-58" edge="1">
          <mxGeometry x="-0.75" y="-30" relative="1" as="geometry">
            <mxPoint x="1698.4265734265734" y="951.1904761904761" as="sourcePoint" />
            <mxPoint x="850.5244755244755" y="951.1904761904761" as="targetPoint" />
            <mxPoint as="offset" />
          </mxGeometry>
        </mxCell>
        <mxCell id="iqvFlgSCIFPxNRSWt7G6-82" value="trips" style="edgeLabel;html=1;align=center;verticalAlign=middle;resizable=0;points=[];container=0;" parent="iqvFlgSCIFPxNRSWt7G6-81" vertex="1" connectable="0">
          <mxGeometry x="-0.1927" y="-1" relative="1" as="geometry">
            <mxPoint as="offset" />
          </mxGeometry>
        </mxCell>
        <mxCell id="iqvFlgSCIFPxNRSWt7G6-83" value="choose_trip(&amp;nbsp; driver_phone )" style="html=1;verticalAlign=bottom;endArrow=block;curved=0;rounded=0;" parent="1" edge="1">
          <mxGeometry x="-0.3301" y="10" width="80" relative="1" as="geometry">
            <mxPoint x="850.5244755244755" y="1008.2738095238094" as="sourcePoint" />
            <mxPoint x="1851.3986013986014" y="1008.2738095238094" as="targetPoint" />
            <mxPoint as="offset" />
          </mxGeometry>
        </mxCell>
        <mxCell id="iqvFlgSCIFPxNRSWt7G6-87" value="add_pending_passenger(phone)" style="html=1;verticalAlign=bottom;endArrow=block;curved=0;rounded=0;" parent="1" edge="1">
          <mxGeometry x="-0.1818" width="80" relative="1" as="geometry">
            <mxPoint x="1851.3986013986014" y="1032.7380952380952" as="sourcePoint" />
            <mxPoint x="1274.4755244755245" y="1032.7380952380952" as="targetPoint" />
            <mxPoint as="offset" />
          </mxGeometry>
        </mxCell>
        <mxCell id="iqvFlgSCIFPxNRSWt7G6-88" value="" style="html=1;verticalAlign=bottom;endArrow=open;dashed=1;endSize=8;curved=0;rounded=0;exitX=1;exitY=1;exitDx=0;exitDy=-5;exitPerimeter=0;" parent="1" edge="1">
          <mxGeometry x="-0.75" y="-30" relative="1" as="geometry">
            <mxPoint x="1270.1048951048951" y="1065.357142857143" as="sourcePoint" />
            <mxPoint x="1851.3986013986014" y="1065.357142857143" as="targetPoint" />
            <mxPoint as="offset" />
          </mxGeometry>
        </mxCell>
        <mxCell id="iqvFlgSCIFPxNRSWt7G6-90" value="[driver] accept_passenger" style="edgeLabel;html=1;align=center;verticalAlign=middle;resizable=0;points=[];container=0;" parent="iqvFlgSCIFPxNRSWt7G6-88" vertex="1" connectable="0">
          <mxGeometry x="-0.7306" y="1" relative="1" as="geometry">
            <mxPoint x="146" y="-9" as="offset" />
          </mxGeometry>
        </mxCell>
        <mxCell id="iqvFlgSCIFPxNRSWt7G6-91" value="" style="html=1;verticalAlign=bottom;endArrow=open;dashed=1;endSize=8;curved=0;rounded=0;" parent="1" edge="1">
          <mxGeometry x="-0.75" y="-30" relative="1" as="geometry">
            <mxPoint x="1851.3986013986014" y="1187.6785714285713" as="sourcePoint" />
            <mxPoint x="854.4120353330878" y="1187.6785714285713" as="targetPoint" />
            <mxPoint as="offset" />
          </mxGeometry>
        </mxCell>
        <mxCell id="iqvFlgSCIFPxNRSWt7G6-94" value="accepted" style="edgeLabel;html=1;align=center;verticalAlign=middle;resizable=0;points=[];container=0;" parent="iqvFlgSCIFPxNRSWt7G6-91" vertex="1" connectable="0">
          <mxGeometry x="0.4529" relative="1" as="geometry">
            <mxPoint as="offset" />
          </mxGeometry>
        </mxCell>
        <mxCell id="iqvFlgSCIFPxNRSWt7G6-95" value="" style="html=1;points=[[0,0,0,0,5],[0,1,0,0,-5],[1,0,0,0,5],[1,1,0,0,-5]];perimeter=orthogonalPerimeter;outlineConnect=0;targetShapes=umlLifeline;portConstraint=eastwest;newEdgeStyle={&quot;curved&quot;:0,&quot;rounded&quot;:0};container=0;" parent="1" vertex="1">
          <mxGeometry x="1545.4545454545455" y="1089.8214285714287" width="8.741258741258742" height="57.083333333333336" as="geometry" />
        </mxCell>
        <mxCell id="iqvFlgSCIFPxNRSWt7G6-96" value="take_trip_money(data)" style="html=1;verticalAlign=bottom;endArrow=block;curved=0;rounded=0;" parent="1" target="iqvFlgSCIFPxNRSWt7G6-95" edge="1">
          <mxGeometry x="-0.1818" width="80" relative="1" as="geometry">
            <mxPoint x="1851.3986013986014" y="1089.8214285714287" as="sourcePoint" />
            <mxPoint x="1274.4755244755245" y="1089.8214285714287" as="targetPoint" />
            <mxPoint as="offset" />
          </mxGeometry>
        </mxCell>
        <mxCell id="iqvFlgSCIFPxNRSWt7G6-97" value="" style="html=1;verticalAlign=bottom;endArrow=open;dashed=1;endSize=8;curved=0;rounded=0;" parent="1" target="iqvFlgSCIFPxNRSWt7G6-58" edge="1">
          <mxGeometry x="-0.75" y="-30" relative="1" as="geometry">
            <mxPoint x="1558.5664335664337" y="1146.0485119047619" as="sourcePoint" />
            <mxPoint x="1838.2867132867134" y="1146.0485119047619" as="targetPoint" />
            <mxPoint as="offset" />
          </mxGeometry>
        </mxCell>
        <mxCell id="iqvFlgSCIFPxNRSWt7G6-99" value="pqassenger" style="shape=umlFrame;whiteSpace=wrap;html=1;pointerEvents=0;width=70;height=30;container=0;" parent="1" vertex="1">
          <mxGeometry x="750" y="853.3333333333334" width="1250" height="415.8928571428571" as="geometry" />
        </mxCell>
        <mxCell id="iqvFlgSCIFPxNRSWt7G6-100" value="new user" style="shape=umlFrame;whiteSpace=wrap;html=1;pointerEvents=0;container=0;" parent="1" vertex="1">
          <mxGeometry x="750" y="37.85714285714286" width="882.8671328671329" height="260.95238095238096" as="geometry" />
        </mxCell>
        <mxCell id="iqvFlgSCIFPxNRSWt7G6-19" value="" style="html=1;points=[[0,0,0,0,5],[0,1,0,0,-5],[1,0,0,0,5],[1,1,0,0,-5]];perimeter=orthogonalPerimeter;outlineConnect=0;targetShapes=umlLifeline;portConstraint=eastwest;newEdgeStyle={&quot;curved&quot;:0,&quot;rounded&quot;:0};container=0;" parent="1" vertex="1">
          <mxGeometry x="841.7832167832169" y="355.89285714285717" width="8.741258741258743" height="848.0952380952381" as="geometry" />
        </mxCell>
        <mxCell id="iqvFlgSCIFPxNRSWt7G6-16" value="" style="html=1;points=[[0,0,0,0,5],[0,1,0,0,-5],[1,0,0,0,5],[1,1,0,0,-5]];perimeter=orthogonalPerimeter;outlineConnect=0;targetShapes=umlLifeline;portConstraint=eastwest;newEdgeStyle={&quot;curved&quot;:0,&quot;rounded&quot;:0};container=0;" parent="1" vertex="1">
          <mxGeometry x="1261.3636363636365" y="78.63095238095238" width="8.741258741258742" height="32.61904761904762" as="geometry" />
        </mxCell>
        <mxCell id="iqvFlgSCIFPxNRSWt7G6-63" value="" style="html=1;points=[[0,0,0,0,5],[0,1,0,0,-5],[1,0,0,0,5],[1,1,0,0,-5]];perimeter=orthogonalPerimeter;outlineConnect=0;targetShapes=umlLifeline;portConstraint=eastwest;newEdgeStyle={&quot;curved&quot;:0,&quot;rounded&quot;:0};container=0;" parent="1" vertex="1">
          <mxGeometry x="1261.3636363636365" y="535.297619047619" width="8.741258741258742" height="40.773809523809526" as="geometry" />
        </mxCell>
        <mxCell id="iqvFlgSCIFPxNRSWt7G6-67" value="" style="html=1;points=[[0,0,0,0,5],[0,1,0,0,-5],[1,0,0,0,5],[1,1,0,0,-5]];perimeter=orthogonalPerimeter;outlineConnect=0;targetShapes=umlLifeline;portConstraint=eastwest;newEdgeStyle={&quot;curved&quot;:0,&quot;rounded&quot;:0};container=0;" parent="1" vertex="1">
          <mxGeometry x="1261.3636363636365" y="714.702380952381" width="8.741258741258742" height="40.773809523809526" as="geometry" />
        </mxCell>
        <mxCell id="iqvFlgSCIFPxNRSWt7G6-71" value="" style="html=1;points=[[0,0,0,0,5],[0,1,0,0,-5],[1,0,0,0,5],[1,1,0,0,-5]];perimeter=orthogonalPerimeter;outlineConnect=0;targetShapes=umlLifeline;portConstraint=eastwest;newEdgeStyle={&quot;curved&quot;:0,&quot;rounded&quot;:0};container=0;" parent="1" vertex="1">
          <mxGeometry x="1261.3636363636365" y="600.5357142857143" width="8.741258741258742" height="40.773809523809526" as="geometry" />
        </mxCell>
        <mxCell id="iqvFlgSCIFPxNRSWt7G6-86" value="" style="html=1;points=[[0,0,0,0,5],[0,1,0,0,-5],[1,0,0,0,5],[1,1,0,0,-5]];perimeter=orthogonalPerimeter;outlineConnect=0;targetShapes=umlLifeline;portConstraint=eastwest;newEdgeStyle={&quot;curved&quot;:0,&quot;rounded&quot;:0};container=0;" parent="1" vertex="1">
          <mxGeometry x="1261.3636363636365" y="1024.5833333333333" width="8.741258741258742" height="40.773809523809526" as="geometry" />
        </mxCell>
        <mxCell id="iqvFlgSCIFPxNRSWt7G6-7" value="" style="html=1;points=[[0,0,0,0,5],[0,1,0,0,-5],[1,0,0,0,5],[1,1,0,0,-5]];perimeter=orthogonalPerimeter;outlineConnect=0;targetShapes=umlLifeline;portConstraint=eastwest;newEdgeStyle={&quot;curved&quot;:0,&quot;rounded&quot;:0};container=0;" parent="1" vertex="1">
          <mxGeometry x="1694.055944055944" y="355.8928571428571" width="8.741258741258742" height="57.083333333333336" as="geometry" />
        </mxCell>
        <mxCell id="iqvFlgSCIFPxNRSWt7G6-23" value="" style="html=1;points=[[0,0,0,0,5],[0,1,0,0,-5],[1,0,0,0,5],[1,1,0,0,-5]];perimeter=orthogonalPerimeter;outlineConnect=0;targetShapes=umlLifeline;portConstraint=eastwest;newEdgeStyle={&quot;curved&quot;:0,&quot;rounded&quot;:0};container=0;" parent="1" vertex="1">
          <mxGeometry x="1409.965034965035" y="164.25595238095235" width="8.741258741258742" height="69.31547619047618" as="geometry" />
        </mxCell>
      </root>
    </mxGraphModel>
  </diagram>
</mxfile>
